<?xml version="1.0" encoding="UTF-8"?>
<!DOCTYPE svg PUBLIC "-//W3C//DTD SVG 1.1//EN" "http://www.w3.org/Graphics/SVG/1.1/DTD/svg11.dtd">
<svg xmlns="http://www.w3.org/2000/svg" version="1.1" width="512px" height="512px" style="shape-rendering:geometricPrecision; text-rendering:geometricPrecision; image-rendering:optimizeQuality; fill-rule:evenodd; clip-rule:evenodd" xmlns:xlink="http://www.w3.org/1999/xlink">
<g><path style="opacity:0.988" fill="#000000" d="M 511.5,433.5 C 511.5,438.167 511.5,442.833 511.5,447.5C 509.918,452.598 506.918,456.764 502.5,460C 494.325,465.503 485.325,468.837 475.5,470C 446.315,472.644 417.981,468.977 390.5,459C 347.795,434.424 330.962,397.924 340,349.5C 358.358,305.448 378.358,262.115 400,219.5C 405.885,207.064 411.218,194.397 416,181.5C 418.866,172.669 417.699,164.502 412.5,157C 405.123,152.244 398.123,152.911 391.5,159C 388.333,162.167 385.167,165.333 382,168.5C 347.551,235.065 313.884,302.065 281,369.5C 268.605,396.267 248.105,406.434 219.5,400C 204.452,391.575 198.618,378.742 202,361.5C 203.333,357.5 204.667,353.5 206,349.5C 224.649,303.223 242.315,256.556 259,209.5C 262.695,197.12 260.195,186.286 251.5,177C 240.852,170.86 231.019,172.026 222,180.5C 192.813,254.387 163.813,328.387 135,402.5C 129.716,414.907 122.55,426.074 113.5,436C 91.8321,449.374 68.8321,452.04 44.5,444C 20.2699,434.279 5.26986,416.779 -0.5,391.5C -0.5,383.5 -0.5,375.5 -0.5,367.5C 21.2367,289.778 44.7367,212.445 70,135.5C 75.258,121.651 81.5913,108.318 89,95.5C 115.34,61.0543 149.174,50.5543 190.5,64C 204.5,71 218.5,78 232.5,85C 241.017,87.4996 248.684,85.8329 255.5,80C 264.5,72.3333 273.5,64.6667 282.5,57C 303.56,38.9504 326.894,35.2838 352.5,46C 363.61,50.8025 373.944,56.8025 383.5,64C 387.728,66.5318 392.228,68.3652 397,69.5C 406.02,65.9067 415.186,62.74 424.5,60C 472.705,56.3823 499.039,78.549 503.5,126.5C 502.891,137.046 501.057,147.38 498,157.5C 493.728,170.984 489.061,184.317 484,197.5C 467.448,235.938 451.448,274.605 436,313.5C 428.093,333.295 423.259,353.795 421.5,375C 421.151,394.659 430.818,405.659 450.5,408C 459.772,409.527 469.105,410.527 478.5,411C 485.023,412.397 491.357,414.397 497.5,417C 504.569,420.561 509.236,426.061 511.5,433.5 Z"/></g>
</svg>
